<svg width="113" height="75" viewBox="0 0 113 75" fill="none" xmlns="http://www.w3.org/2000/svg">
<path d="M37.0843 15.9024V8.73438C37.0843 5.56737 39.6516 3 42.8186 3H104.463C107.63 3 110.198 5.56737 110.198 8.73438V48.8751C110.198 52.0421 107.63 54.6094 104.463 54.6094H94.4281L97.7818 70.2603C98.075 71.6282 96.4357 72.563 95.4077 71.6141L80.0921 57.4766H42.8186C39.6516 57.4766 37.0843 54.9093 37.0843 51.7422V48.8751" stroke="url(#paint0_linear_13205_1595)" stroke-width="4.30079"/>
<path d="M18.4074 24.8481L15.3395 40.2736H11.096L11.3827 38.754C10.1021 39.92 8.52512 40.503 6.65188 40.503C5.44766 40.503 4.33902 40.2258 3.32594 39.6715C2.31287 39.1171 1.5005 38.3239 0.888829 37.2917C0.296276 36.2404 0 35.0075 0 33.593C0 31.8918 0.372735 30.3627 1.1182 29.0055C1.88279 27.6293 2.91498 26.5589 4.21477 25.7943C5.51456 25.0106 6.94816 24.6187 8.51556 24.6187C10.8858 24.6187 12.5583 25.3929 13.5331 26.9411L13.9345 24.8481H18.4074ZM8.02813 36.8043C8.90741 36.8043 9.69111 36.594 10.3792 36.1735C11.0674 35.7339 11.6026 35.1318 11.9849 34.3672C12.3672 33.6026 12.5583 32.7233 12.5583 31.7294C12.5583 30.678 12.2429 29.8466 11.6121 29.2349C11.0005 28.6232 10.1403 28.3174 9.03165 28.3174C8.15238 28.3174 7.36868 28.5372 6.68056 28.9768C5.99243 29.3974 5.45722 29.9899 5.07493 30.7545C4.69264 31.5191 4.50149 32.3984 4.50149 33.3923C4.50149 34.4436 4.80732 35.2751 5.41899 35.8868C6.04977 36.4984 6.91949 36.8043 8.02813 36.8043Z" fill="url(#paint1_linear_13205_1595)"/>
<path d="M23.9534 40.503C22.6153 40.503 21.3442 40.3596 20.14 40.0729C18.9549 39.767 18.0278 39.3752 17.3588 38.8973L19.0791 35.6574C19.7482 36.097 20.5605 36.4507 21.5163 36.7183C22.4911 36.9859 23.4659 37.1197 24.4408 37.1197C25.4539 37.1197 26.2089 36.9954 26.7059 36.7469C27.2028 36.4793 27.4513 36.1066 27.4513 35.6287C27.4513 35.2464 27.2315 34.9693 26.7919 34.7972C26.3522 34.6252 25.645 34.4436 24.6702 34.2525C23.5615 34.0422 22.644 33.8128 21.9177 33.5644C21.2104 33.3159 20.5892 32.9145 20.054 32.3601C19.5379 31.7867 19.2798 31.0126 19.2798 30.0377C19.2798 28.3365 19.9871 27.008 21.4016 26.0523C22.8352 25.0966 24.7084 24.6187 27.0213 24.6187C28.0917 24.6187 29.1334 24.7334 30.1465 24.9628C31.1596 25.1922 32.0197 25.5075 32.727 25.909L31.1213 29.1776C29.8598 28.3939 28.3402 28.002 26.5625 28.002C25.5877 28.002 24.8422 28.1454 24.3261 28.4321C23.8291 28.7188 23.5806 29.082 23.5806 29.5216C23.5806 29.923 23.8004 30.2193 24.2401 30.4104C24.6797 30.5825 25.4156 30.7736 26.4478 30.9839C27.5374 31.1941 28.4262 31.4235 29.1143 31.672C29.8215 31.9014 30.4332 32.2932 30.9493 32.8476C31.4654 33.4019 31.7235 34.1569 31.7235 35.1126C31.7235 36.833 30.9971 38.1614 29.5444 39.098C28.1108 40.0346 26.2471 40.503 23.9534 40.503Z" fill="url(#paint2_linear_13205_1595)"/>
<path d="M43.9162 31.5573L49.2205 40.2736H44.0309L40.3609 34.2812L37.637 36.5462L36.8916 40.2736H32.4187L36.6622 18.999H41.135L38.7552 30.8979L46.1526 24.8481H51.973L43.9162 31.5573Z" fill="url(#paint3_linear_13205_1595)"/>
<path d="M72.648 24.615C74.6007 24.615 76.041 25.137 76.969 26.181C77.9163 27.225 78.39 28.9457 78.39 31.343V41H75.664V31.343C75.664 29.8157 75.4127 28.7427 74.91 28.124C74.4267 27.486 73.547 27.167 72.271 27.167C70.763 27.167 69.255 27.892 67.747 29.342C67.8243 29.8833 67.863 30.5503 67.863 31.343V41H65.137V31.343C65.137 29.8157 64.8857 28.7427 64.383 28.124C63.8997 27.486 63.02 27.167 61.744 27.167C60.2747 27.167 58.8053 27.8243 57.336 29.139V41H54.61V24.963H57.336V26.674C58.902 25.3013 60.497 24.615 62.121 24.615C63.4163 24.615 64.4797 24.8373 65.311 25.282C66.1423 25.7073 66.7707 26.3937 67.196 27.341C68.9553 25.5237 70.7727 24.615 72.648 24.615ZM84.8146 33.199C84.8533 34.9777 85.298 36.3987 86.1486 37.462C86.9993 38.5253 88.3526 39.057 90.2086 39.057C91.62 39.057 93.1666 38.6607 94.8486 37.868L95.6896 40.13C93.9303 41.0387 92.026 41.493 89.9766 41.493C88.2753 41.493 86.8253 41.1353 85.6266 40.42C84.428 39.7047 83.5193 38.709 82.9006 37.433C82.282 36.157 81.9726 34.6683 81.9726 32.967C81.9726 31.169 82.2916 29.6417 82.9296 28.385C83.587 27.109 84.4666 26.1423 85.5686 25.485C86.6706 24.8277 87.908 24.499 89.2806 24.499C91.388 24.499 93.041 25.1563 94.2396 26.471C95.4383 27.7857 96.0376 29.6707 96.0376 32.126V33.199H84.8146ZM89.2806 26.935C86.8833 26.935 85.4526 28.2593 84.9886 30.908H93.1666C93.07 29.5547 92.7026 28.559 92.0646 27.921C91.4266 27.2637 90.4986 26.935 89.2806 26.935Z" fill="black"/>
<defs>
<linearGradient id="paint0_linear_13205_1595" x1="37.0843" y1="3" x2="97.2953" y2="77.547" gradientUnits="userSpaceOnUse">
<stop stop-color="#485BFF"/>
<stop offset="1" stop-color="#FF59F8"/>
</linearGradient>
<linearGradient id="paint1_linear_13205_1595" x1="0" y1="18.999" x2="12.0791" y2="53.1106" gradientUnits="userSpaceOnUse">
<stop stop-color="#485BFF"/>
<stop offset="1" stop-color="#FF59F8"/>
</linearGradient>
<linearGradient id="paint2_linear_13205_1595" x1="0" y1="18.999" x2="12.0791" y2="53.1106" gradientUnits="userSpaceOnUse">
<stop stop-color="#485BFF"/>
<stop offset="1" stop-color="#FF59F8"/>
</linearGradient>
<linearGradient id="paint3_linear_13205_1595" x1="0" y1="18.999" x2="12.0791" y2="53.1106" gradientUnits="userSpaceOnUse">
<stop stop-color="#485BFF"/>
<stop offset="1" stop-color="#FF59F8"/>
</linearGradient>
</defs>
</svg>
